<?xml version="1.0" standalone="no"?><!DOCTYPE svg PUBLIC "-//W3C//DTD SVG 1.1//EN" "http://www.w3.org/Graphics/SVG/1.1/DTD/svg11.dtd"><svg t="1532506557104" class="icon" style="" viewBox="0 0 1024 1024" version="1.1" xmlns="http://www.w3.org/2000/svg" p-id="1418" xmlns:xlink="http://www.w3.org/1999/xlink" width="32" height="32"><defs><style type="text/css"></style></defs><path d="M852.864 178.432c-187.904-187.52-492.096-187.328-679.744 0.448-187.584 187.84-187.392 492.032 0.384 679.808 187.84 187.52 492.224 187.264 679.744-0.576C1040.768 670.272 1040.768 366.016 852.864 178.432zM747.328 565.504l-197.12 0.32 0 197.632c0 20.352-16.448 37.056-36.864 37.184-20.48 0-36.992-16.704-36.992-37.056L476.352 565.888 278.848 566.144c-20.416 0-36.992-16.512-36.992-36.928 0-20.352 16.576-37.056 36.992-37.056l197.376-0.256L476.224 295.168c0-20.48 16.512-37.184 36.992-37.184S550.144 274.56 550.144 295.04l0 196.864 197.056-0.192c20.416 0 37.056 16.512 37.056 36.928C784.32 548.992 767.744 565.504 747.328 565.504z" p-id="1419"></path></svg>