<?xml version="1.0" standalone="no"?><!DOCTYPE svg PUBLIC "-//W3C//DTD SVG 1.1//EN" "http://www.w3.org/Graphics/SVG/1.1/DTD/svg11.dtd"><svg t="1531986026339" class="icon" style="" viewBox="0 0 1024 1024" version="1.1" xmlns="http://www.w3.org/2000/svg" p-id="57071" xmlns:xlink="http://www.w3.org/1999/xlink" width="32" height="32"><defs><style type="text/css"></style></defs><path d="M743.122915 767.17368c0 36.465516-29.560246 66.060555-66.026786 66.060555L368.909048 833.234235c-36.431747 0-66.026786-29.594015-66.026786-66.060555l0-398.22984-44.01547 0 0 440.206884c0 36.464493 29.559223 66.026786 66.024739 66.026786l396.188344 0c36.465516 0 66.059532-29.562293 66.059532-66.026786L787.139407 368.942817l-44.017516 0L743.121891 767.17368z" p-id="57072"></path><path d="M456.976826 721.115692 456.976826 434.969603c0-12.144598-9.830903-22.00927-22.008246-22.00927-12.17939 0-22.00927 9.864672-22.00927 22.00927l0 286.146089c0 12.143575 9.829879 22.008246 22.00927 22.008246C447.145923 743.122915 456.976826 733.258243 456.976826 721.115692z" p-id="57073"></path><path d="M853.16517 280.875039 743.122915 280.875039l0-88.034009c0-24.320918-19.729344-44.017516-44.052309-44.017516L346.933547 148.823514c-24.320918 0-44.050262 19.695574-44.050262 44.017516l0 88.034009L170.83176 280.875039c-12.143575 0-22.008246 9.864672-22.008246 22.008246 0 12.17939 9.864672 22.044062 22.008246 22.044062l176.101787 0 352.137059 0L853.16517 324.927347c12.144598 0 22.010293-9.864672 22.010293-22.044062C875.176486 290.73971 865.309768 280.875039 853.16517 280.875039zM699.071629 280.875039 346.933547 280.875039 346.933547 236.857523c0-24.288173 19.695574-44.017516 44.018539-44.017516l264.10305 0c24.320918 0 44.01547 19.729344 44.01547 44.017516L699.070606 280.875039z" p-id="57074"></path><path d="M633.045867 721.115692 633.045867 434.969603c0-12.144598-9.830903-22.00927-22.008246-22.00927-12.144598 0-22.00927 9.864672-22.00927 22.00927l0 286.146089c0 12.143575 9.864672 22.008246 22.00927 22.008246C623.214964 743.122915 633.045867 733.258243 633.045867 721.115692z" p-id="57075"></path></svg>