<?xml version="1.0" standalone="no"?><!DOCTYPE svg PUBLIC "-//W3C//DTD SVG 1.1//EN" "http://www.w3.org/Graphics/SVG/1.1/DTD/svg11.dtd"><svg t="1531808434333" class="icon" style="" viewBox="0 0 1024 1024" version="1.1" xmlns="http://www.w3.org/2000/svg" p-id="14732" xmlns:xlink="http://www.w3.org/1999/xlink" width="32" height="32"><defs><style type="text/css"></style></defs><path d="M512 1024l-363.52-112.64c-46.08-5.12-76.8-66.56-76.8-107.52V81.92C66.56 35.84 107.52 0 153.6 0h716.8c46.08 0 81.92 35.84 81.92 81.92v721.92c0 40.96-30.72 107.52-76.8 107.52L512 1024zM153.6 56.32c-15.36 0-25.6 10.24-25.6 25.6v721.92c0 20.48 20.48 51.2 25.6 56.32h10.24l353.28 107.52 363.52-107.52c10.24 0 25.6-30.72 25.6-56.32V81.92c0-15.36-10.24-25.6-25.6-25.6H153.6z" fill="#2B2C2C" p-id="14733"></path><path d="M363.52 752.64c-5.12 0-10.24 0-15.36-5.12-10.24-5.12-10.24-15.36-10.24-25.6l35.84-168.96-122.88-107.52c-5.12-10.24-10.24-20.48-5.12-30.72 0-10.24 10.24-15.36 20.48-15.36l148.48-15.36 71.68-153.6c5.12-10.24 15.36-15.36 25.6-15.36s20.48 5.12 25.6 15.36l61.44 148.48 153.6 15.36c10.24 0 20.48 10.24 25.6 20.48 5.12 10.24 0 20.48-5.12 30.72l-117.76 107.52 40.96 168.96c0 10.24 0 20.48-10.24 25.6-10.24 5.12-20.48 5.12-30.72 5.12l-138.24-71.68-143.36 71.68h-10.24z m-30.72-307.2l87.04 76.8c5.12 5.12 10.24 15.36 10.24 25.6l-30.72 128 102.4-51.2c5.12-5.12 15.36-5.12 25.6 0l97.28 51.2-30.72-128c0-10.24 0-20.48 10.24-25.6l81.92-76.8-107.52-10.24c-10.24 0-20.48-5.12-20.48-15.36L512 307.2 460.8 419.84c-5.12 5.12-10.24 15.36-20.48 15.36l-107.52 10.24z" fill="#2B2C2C" p-id="14734"></path></svg>