<?xml version="1.0" standalone="no"?><!DOCTYPE svg PUBLIC "-//W3C//DTD SVG 1.1//EN" "http://www.w3.org/Graphics/SVG/1.1/DTD/svg11.dtd"><svg t="1531799635017" class="icon" style="" viewBox="0 0 1024 1024" version="1.1" xmlns="http://www.w3.org/2000/svg" p-id="2811" xmlns:xlink="http://www.w3.org/1999/xlink" width="32" height="32"><defs><style type="text/css"></style></defs><path d="M659.718343 892.260583 364.28575 892.260583c-17.447371 0-31.602765 14.139022-31.602765 31.586392 0 17.446347 14.156418 31.586392 31.602765 31.586392l295.432593 0c17.446347 0 31.602765-14.139022 31.602765-31.586392C691.321108 906.399605 677.16469 892.260583 659.718343 892.260583z" p-id="2812"></path><path d="M870.280989 735.268016l-58.050114-102.012372c-16.683984-40.294728-71.604828-33.410947-65.106834 5.143137 0.527003 1.355881 0.927115 2.76395 1.645476 4.02978l71.295789 125.453247c0.719384 1.234107 1.508353 2.417049 2.26253 3.342118L200.784956 771.223926l73.14695-128.760572c2.570545-4.472871 3.908006-9.580193 3.908006-14.807241L277.839913 444.977537c0-87.85186 68.279083-178.942485 159.387104-212.071 22.5199-7.283894 39.350217-10.506285 49.495274-11.92868 11.55108-1.594311 33.488719-2.022053 48.810682 0.033769 14.910595 2.039449 32.494065 6.324032 53.30095 13.127995 88.948845 33.728172 156.028613 124.356262 156.028613 210.836893l0 98.359168c1.547239 28.015054 55.228859 30.90487 59.778478 0L804.641013 444.977537c0-53.385884-19.297508-109.582791-54.363142-158.205185-29.523407-40.86471-69.201082-73.718979-113.947192-96.090499-1.357927-67.536162-56.502875-122.115222-124.346029-122.115222-67.557652 0-122.460076 54.140061-124.262118 121.286344-44.393069 21.855774-84.387969 54.562686-114.235764 95.496981-35.750225 48.998971-55.425334 105.675808-55.425334 159.627581l0 174.795025-70.815859 124.613112c-10.214642 17.823947-10.146081 39.983643 0.170892 57.80759 10.283204 17.772782 29.478382 28.810163 50.112328 28.810163l100.945063 0 69.547982 0 62.075801 0 163.775041 0 62.041008 0 170.493046 0c31.945573 0 57.96211-25.964348 57.96211-57.876152C884.368846 759.107981 879.363855 745.70574 870.280989 735.268016zM511.98465 124.712373c29.589922 0 54.617945 18.989493 64.151066 45.331441-40.433898-7.983835-87.045495-8.224312-128.154775-0.471744C457.642998 143.470599 482.56869 124.712373 511.98465 124.712373z" p-id="2813"></path></svg>