<?xml version="1.0" standalone="no"?><!DOCTYPE svg PUBLIC "-//W3C//DTD SVG 1.1//EN" "http://www.w3.org/Graphics/SVG/1.1/DTD/svg11.dtd"><svg t="1532400733697" class="icon" style="" viewBox="0 0 1024 1024" version="1.1" xmlns="http://www.w3.org/2000/svg" p-id="1417" xmlns:xlink="http://www.w3.org/1999/xlink" width="32" height="32"><defs><style type="text/css"></style></defs><path d="M659.264 361.28L549.12 148.8a36.096 36.096 0 0 0-37.12-20.608 36.096 36.096 0 0 0-36.928 20.608l-110.336 212.48-248.512 34.368c-32.832 4.48-39.936 48.64-18.944 68.096l176.64 163.648-40.768 226.368c-6.336 35.008 27.648 62.08 62.976 44.416 71.936-35.904 143.936-72.32 215.936-109.184 72 36.864 144 73.28 215.936 109.184 35.328 17.664 69.312-10.176 62.976-45.184L750.144 627.2l176.64-163.584c20.992-19.456 13.824-63.488-18.944-68.032l-248.576-34.304z" p-id="1418"></path></svg>